<svg xmlns="http://www.w3.org/2000/svg" xmlns:xlink="http://www.w3.org/1999/xlink" version="1.1" id="Layer_1" x="0px" y="0px" width="256.561px" height="79.123px" viewBox="0 0 256.561 79.123" enable-background="new 0 0 256.561 79.123" xml:space="preserve">
<g>
	<path fill="#B92546" d="M98.179 38.468c-0.113-0.027-0.482 0.08-0.638 0.102c-1.239 0.178-1.921-0.723-2.668-1.434 c-0.407-0.387-0.294-0.836 0.263-1.059c0.312-0.125 0.669-0.312 0.968-0.259c0.436 0.1 1.3 0.5 1.5 0.4"/>
	<path fill="#B92546" d="M101.727 36.231c0.117-0.077 0.738-0.294 0.854-0.37c1.938-1.295 2.286-3.435 2.783-5.439 c0.735-2.967 1.721-5.694 4.666-7.221c1.566-0.812 3.282-0.896 4.951-0.937c3.206-0.075 6.399-0.177 9.573-0.665 c0.928-0.142 1.8 0.2 2.6 0.498c1.947 0.8 3.9 0.7 5.9 0.159c0.624-0.179 1.223-0.312 1.877-0.081 c1.86 0.7 3.8 0.6 5.7 0.323c0.854-0.145 1.7 0.1 2.4 0.45c1.096 0.6 2.1 0.7 3.131-0.168 c0.572-0.455 1.329-0.638 1.911-1.162c0.683-0.615 1.321-1.198 1.522-2.146c0.068-0.321 0.244-0.691 0.688-0.588 c0.354 0.1 0.2 0.4 0.2 0.67c0.056 0.317-0.157 0.8 0.2 0.915c0.474 0.1 0.583-0.393 0.746-0.689 c0.266-0.48 0.442-1.011 0.731-1.7c0.493 0.7 0.4 1.3 0.3 1.895c-0.354 1.178-0.6 2.413-1.455 3.4 c-0.369 0.414-0.258 0.817-0.21 1.334c0.153 1.7 1.1 3.1 1.2 4.78c0.017 1.1 0.6 2 1 3 c0.339 0.7 0.4 1.097-0.474 1.483c-1.593 0.727-1.593 0.823-3.073-0.53c-0.584-0.535-1.193-0.757-1.938-0.689 c-0.86 0.077-1.737 0.105-2.573 0.3c-1.048 0.242-1.832 0.893-2.075 1.999c-0.241 1.093-0.782 1.934-1.787 2.5 c-0.81 0.418-1.212 1.045-1.206 1.992c0.011 1.953-0.421 3.892-0.076 5.863c0.225 1.3 0.5 2.5 1.4 3.5 c0.146 0.2 0.3 0.4 0.4 0.559c0.404 0.6 0.9 1.2 0.2 1.902c-0.537 0.527-2.017 0.164-2.518-0.485 c-0.674-0.874-1.005-1.788-1.152-2.937c-0.287-2.232-1.402-4.246-2.324-6.287c-0.413-0.917-2.021-0.958-2.722-0.142 c-0.221 0.256-0.437 0.528-0.594 0.825c-0.669 1.271-1.453 2.187-2.962 2.779c-1.286 0.506-2.119 2.055-2.569 3.6 c-0.162 0.541-0.004 1.327-0.832 1.433c-0.57 0.07-1.028-0.345-1.326-0.751c-0.417-0.569-0.505-1.279-0.129-1.92 c0.468-0.8 0.972-1.532 1.755-2.14c1.663-1.289 2.782-2.934 2.554-5.226c-0.062-0.617-0.24-0.857-0.846-0.917 c-1.122-0.11-2.236-0.292-3.355-0.434c-1.07-0.136-2.141-0.136-2.937 0.726c-0.767 0.829-1.844 0.49-2.733 0.8 c-0.321 0.126-0.55-0.15-0.715-0.425c-0.183-0.304-0.414-0.592-0.806-0.485c-0.417 0.114-0.187 0.507-0.245 0.8 c-0.047 0.22-0.041 0.458-0.121 0.664c-0.594 1.534-0.358 2.7 0.9 3.728c1.434 1.1 2 2.8 3.2 4.1 c0.209 0.2 0.2 0.6 0 0.859c-0.195 0.338-0.501 0.18-0.804 0.134c-1.713-0.265-2.679-1.438-3.271-2.885 c-0.625-1.53-1.848-2.514-3.053-3.408c-1.429-1.061-1.549-2.27-1.139-3.757c0.07-0.256 0.165-0.503 0.073-0.776 c-0.384-0.175-0.389 0.234-0.568 0.37c-0.887 0.681-1.478 1.66-2.468 2.262c-1.979 1.203-1.716 3.175-1.49 5.1 c0.104 0.8 0.4 1.7 0.9 2.378c0.303 0.4 0.5 0.9 0.2 1.361c-0.273 0.404-0.692-0.002-1.049 0 c-0.99 0.041-1.567-0.399-1.645-1.423c-0.008-0.108-0.028-0.281-0.094-0.312c-1.369-0.627-0.746-1.827-0.702-2.762 c0.062-1.32 0.18-2.647 0.061-3.953c-0.139-1.532 0.341-2.77 1.436-3.744c1.906-1.698 1.645-3.8 0.994-5.835 c-0.272-0.854-0.278-1.959-1.185-2.6c-0.359 0.311-0.408 0.714-0.489 1.111c-0.468 2.3-1.528 4.294-3.132 6 c-0.425 0.453-0.965 0.752-1.523 0.95c-0.244 0.086-0.635 0.152-0.751 0.3"/>
	<path fill="#CD5A5E" d="M213.862 48.062c-0.761 0.138-1.401-0.201-1.823-0.719c-0.742-0.912-1.262-0.455-1.742 0.2 c-0.612 0.801-1.446 1.138-2.375 1.368c-0.33 0.081-0.633 0.142-0.725-0.251c-0.076-0.32 0.199-0.466 0.474-0.518 c0.402-0.076 0.683-0.289 0.864-0.652c0.388-0.771 0.201-1.117-0.649-1.142c-0.827-0.021-1.644-0.003-2.431-0.387 c-0.402-0.195-0.931-0.682-1.325 0.113c-0.37 0.746-0.293 1.4 0.3 1.92c0.333 0.3 1.1 0.2 0.6 0.9 c-0.483 0.676-1.14 0.45-1.512-0.09c-0.757-1.104-2.302-1.844-1.746-3.611c0.134-0.423-0.254-0.482-0.58-0.433 c-0.857 0.132-1.163 0.775-1.288 1.516c-0.115 0.673-0.415 1.066-1.133 0.89c-0.681-0.168-0.427-0.701-0.453-1.185 c-0.084-1.523 1.365-1.84 2.056-2.743c0.064-0.084 0.202-0.11 0.278-0.189c0.272-0.277 0.896-0.497 0.596-0.93 c-0.258-0.372-0.836-0.199-1.232 0.064c-0.653 0.436-1.408 0.56-2.147 0.608c-0.579 0.039-1.522 0.33-1.633-0.438 c-0.094-0.658 0.877-0.51 1.367-0.634c1.397-0.35 2.782-0.775 3.946-1.594c1.995-1.403 3.828-0.564 5.7 0.2 c0.814 0.4 1.7 0.6 2.5 1.081c0.778 0.4 1.192-0.509 1.726-0.903c0.229-0.169 0.312-0.529 0.538-0.704 c0.276-0.215 0.41-0.322 0.9 0.046c0.938 0.7 1 1.6 1.3 2.455c0.512 1.3 0.5 1.489-0.846 2.1 c-0.366 0.175-1.073 0.033-0.993 0.679c0.063 0.5 0.5 0.9 1 1.183c0.229 0.1 0.5 0.2 0.7 0.3 c0.54 0.1 1 0.3 0.9 0.92C214.948 48.3 214.3 48 213.9 48.1"/>
	<path fill="#B9AC92" d="M182.629 19.835c0.153-0.805 0.138-1.836 0.525-2.791c0.265-0.649 0.624-1.137 1.453-0.817 c0.233 0.1 0.5 0.2 0.684-0.135c0.107-0.239-0.077-0.43-0.236-0.591c-1.05-1.063-1.166-2.194-0.319-3.448 c0.338-0.499 0.18-1.109 0.142-1.661c-0.104-1.495 0.088-2.932 0.659-4.319c0.113-0.274 0.11-0.637 0.516-0.627 c0.313 0 0.4 0.3 0.5 0.537c0.539 1.5 1.4 2.9 2 4.415c0.405 1 1.2 1.7 1.4 2.8 c0.128 0.7 0.7 0.3 1 0.166c1.312-0.587 2.013-0.471 3 0.55c0.153 0.2 0.4 0.3 0.3 0.6 c-0.095 0.196-0.316 0.2-0.498 0.163c-0.791-0.165-1.129 0.514-1.611 0.881c-1.426 1.085-2.692 2.289-2.562 4.3 c0.019 0.297-0.115 0.516-0.424 0.576c-0.377 0.074-0.643-0.107-0.882-0.384c-1.046-1.209-1.054-1.209-2.074 0 c-0.355 0.438-0.709 0.881-1.024 1.347c-0.315 0.465-0.6 1.184-1.19 1.021c-0.687-0.19-1.081-0.902-1.26-1.624 C182.576 20.6 182.6 20.3 182.6 19.8"/>
	<path fill="#D7A664" d="M158.006 44.99c0.909 1.1 1.7 2.1 1.9 3.305c0.072 0.5 0.3 1.09-0.361 1.2 c-0.573 0.113-1.358 0.29-1.68-0.508c-0.64-1.595-2.005-2.548-3.174-3.667c-0.68-0.652-2.22-0.228-2.418 0.7 c-0.247 1.134-0.817 2.3 0 3.476c0.259 0.4 0.7 1.266-0.208 1.632c-0.879 0.36-1.785-0.207-1.818-1.217 c-0.024-0.701-0.877-0.788-0.809-1.388c0.238-2.066-0.287-4.317 1.524-6.01c0.783-0.732 0.562-1.739-0.362-2.189 c-0.582-0.283-0.67-0.855-0.528-1.363c0.804-2.85 2.407-5.379 6.045-5.511c2.946-0.107 5.9 0.3 8.8 0.6 c1.518 0.1 2.9 0.1 4.155-0.949c0.231-0.188 0.521-0.387 0.617-0.643c0.33-0.88 0.472-1.982 1.832-1.069 c0.024 0 0.1 0 0.108-0.008c1.398-1.248 1.3 0.3 1.9 0.9c1.042 1.1 2 2.2 2.6 3.7 c0.162 0.4 0.4 0.8 0.5 1.27c0.191 0.959-0.388 1.476-1.359 1.261c-1.545-0.341-1.907-0.162-2.576 1.2 c-0.49 1.021-1.129 1.951-1.761 2.888c-0.432 0.642-0.981 1.04-1.746 1.098c-0.721 0.053-0.874 0.429-0.913 1.1 c-0.089 1.5 0.3 2.8 1.2 3.989c0.415 0.5 1 1 0.3 1.613c-0.54 0.458-1.961 0.044-2.264-0.593 c-0.241-0.508-0.421-1.046-0.604-1.578c-0.564-1.63-1.407-1.847-2.456-0.522c-0.533 0.672-1.156 1.157-1.862 1.6 c-0.523 0.322-1.062 0.373-1.604 0.116c-0.324-0.152-0.365-0.479-0.233-0.784c0.254-0.586 0.14-1.511 1.041-1.563 c1.389-0.082 1.358-1.362 1.863-2.132c0.301-0.458-0.293-0.488-0.695-0.446C161.332 44.7 159.8 45.1 158 45"/>
	<path fill="#6D615E" d="M101.673 35.445c-0.118-2.711 0.017-5.443 0.638-8.092c0.622-2.653 0.951-5.304 0.744-8.022 c-0.039-0.525-0.103-1.093 0.053-1.576c0.29-0.905 0.089-1.71-0.258-2.513c-0.322-0.743-0.464-1.475-0.357-2.304 c0.095-0.734 0.14-1.566-0.114-2.233c-0.344-0.907-0.638-1.99-1.422-2.562c-0.772-0.562-1.646-1.04-2.428-1.606 c-2.219-1.607-4.521-1.44-6.888-0.465c-0.589 0.242-1.197 0.355-1.76 0.096c-1.471-0.679-2.932-1.437-4.149-2.488 c-0.882-0.76-1.752-1.073-2.862-0.989c-2.099 0.158-4.134-0.084-6.06-1.017c-0.671-0.325-1.381-0.588-2.096-0.799 c-2.746-0.81-5.571-0.801-8.401-0.872c-1.453-0.036-2.749 0.396-3.773 1.213c-2.901 2.315-6.58 3.077-9.637 5.1 c-1.397 0.904-2.693 1.855-3.717 3.206c-1.274 1.683-1.791 3.721-2.801 5.521c-1.295 2.308-2.723 4.422-5.628 4.9 c-0.921 0.152-1.807 0.509-2.706 0.783c-0.584 0.179-0.976 0.565-0.689 1.175c0.251 0.5 0.9 0.4 1.2 0.1 c1.018-0.758 2.228-0.855 3.384-1.153c1.935-0.499 3.286-1.825 4.619-3.258c-0.31 2.2 0.1 4.54-0.83 6.7 c-0.751 1.68-0.984 3.454-1.18 5.259c-0.206 1.893-0.792 3.646-2.205 5.046c-1.206 1.196-2.512 2.215-4.076 2.9 c-1.745 0.771-3.366 3.173-3.224 4.91c0.125 1.5 0.9 2.9 1.8 4.046c1.01 1.2 1.6 1.1 2.652-0.06 c0.544-0.572 0.879-1.297 1.485-1.825c1.659-1.448 3.44-2.787 4.569-4.747c0.159-0.276 0.399-0.434 0.669-0.58 c2.829-1.535 5.7-2.994 8.207-5.066c0.873-0.721 1.621-0.405 1.9 0.635c0.113 0.4 0.3 0.6 0.6 0.9 c2.007 2.5 2.9 5.3 2.2 8.41c-0.409 1.661-0.49 3.233-0.043 4.878c0.199 0.7 0.6 1.2 1.3 1.2 c1.81 0 3.6 0 5.431-0.052c1.17-0.062 1.754-0.976 1.535-2.148c-0.11-0.587-0.3-1.137-0.584-1.685 c-0.496-0.957-0.951-1.958-1.249-2.992c-0.699-2.427-0.527-4.932-0.494-7.421c0.006-0.477 0.243-0.642 0.702-0.674 c1.615-0.113 3.231-0.228 4.839-0.405c0.834-0.092 1 0.2 1 1.001c-0.073 1.467-0.04 2.9 0.1 4.4 c0.247 2.1 0.4 4.152-0.378 6.124c-0.914 2.2 0.6 3.5 2.4 3.706c1.164 0.2 2.3 0 3.502-0.051 c0.852-0.065 1.196-0.492 1.19-1.317c-0.011-1.467-0.495-2.808-1.074-4.121c-0.401-0.912-0.48-1.869-0.088-2.746 c1.323-2.952 1.819-6.109 2.451-9.238c0.068-0.337-0.081-0.867 0.439-0.918c0.524-0.05 0.6 0.5 0.8 0.8 c0.092 0.2 0.1 0.5 0.1 0.771c0.194 1.2 0.6 2.2 1.8 2.768c0.336 0.1 0.7 0.3 0.9 0.6 c1.208 1.4 2.5 2.6 3.7 4.062c1.121 1.4 1.2 2.439-0.048 3.781c-0.721 0.799-1.146 1.76-1.261 2.8 c-0.127 1.2 0.5 2.1 1.6 2.531c0.925 0.4 1.9 0.4 2.9 0.575c1.874 0.3 2.42-0.216 2.17-2.121 c-0.262-2.006-0.225-4.003 0.265-5.954c0.64-2.556 0.087-4.812-1.152-7.087c-1.356-2.491-1.874-5.23-1.484-8.087 c0.096-0.691 0.381-0.984 1.145-0.709c1.053 0.4 2 1.1 3.2 1.106c1.037 0 1.5 0.7 1.7 1.6 c0.161 0.9 0.3 1.8 0.4 2.764c0.181 1.4 0.4 2.8 0.7 4.229c0.259 1 0.5 2.1 0.8 3.1 c0.631 2.6 2.2 4.8 3.4 7.034c0.692 1.2 1.2 2.3 0.9 3.664c-0.168 0.9 0.3 1.2 1.1 1.1 c1.942-0.215 2.638-1.381 1.618-2.955c-1.806-2.789-2.812-5.978-3.459-9.214"/>
	<path fill="#133055" d="M191.143 45.351c0.015 0.418-0.084 1.122-0.446 1.26c-0.137 0.052-0.568 0.26-0.669 0.1 c-0.086-0.167 0.11-0.514 0.148-0.669c0.048-0.19 0.089-0.386 0.12-0.582c0.017-0.111 0.004-0.312 0.07-0.401 c0.009-0.011 0.018-0.021 0.027-0.027c0.056-0.038 0.185-0.017 0.247-0.019c0.093-0.004 0.441-0.055 0.5 0.1 C191.157 45.1 191.1 45.3 191.1 45.4 M203.137 35.391c-1.572-0.005-2.613-1.392-4.128-1.529 c-0.202-0.018-0.41-0.188-0.577-0.332c-0.374-0.324-0.815-0.758-1.267-0.495c-0.45 0.263-0.523 0.874-0.479 1.4 c0.031 0.4 0.1 0.74-0.388 0.921c-1.879 0.664-3.807 1.028-5.767 0.564c-1.558-0.369-3.112-0.546-4.702-0.506 c-1.544 0.01-3.085-0.047-4.489 0.817c-3.069 1.888-5.578 4.517-8.605 6.457c-0.288 0.187-0.411 0.457-0.228 0.8 c0.152 0.3 0.4 0.3 0.7 0.181c1.196-0.594 2.558-0.825 3.592-1.791c0.736-0.686 1.582-1.257 2.407-1.84 c0.217-0.152 0.487-0.388 0.824-0.164c0.896 0.6 1 2.7 0.2 3.355c-0.328 0.244-0.518 0.51-0.609 0.9 c-0.173 0.732-0.386 1.455-0.575 2.184c-0.383 1.5 0.1 2.3 1.6 2.694c0.262 0.1 0.6 0.3 0.814-0.082 c0.189-0.269 0.09-0.479-0.037-0.727c-0.512-0.993-0.165-2 0.025-2.982c0.117-0.603 0.773-0.786 1.245-0.818 c0.562-0.039 0.3 0.6 0.3 0.891c0.053 1.7 0.6 2.9 2.5 3.222c0.482 0.1 1 0.4 1.257-0.199 c0.255-0.562-0.146-0.864-0.596-1.155c-1.034-0.667-1.14-1.202-0.525-2.262c0.264-0.454 0.608-0.878 0.785-1.363 c0.174-0.473 0.406-0.743 0.896-0.6c0.488 0.1 1.2 0.2 1.2 0.885c-0.065 1.5 0.2 3.036-0.842 4.3 c-0.376 0.483-0.592 1.07-0.546 1.685c0.046 0.6 0.5 0.9 1.1 0.927c0.408-0.001 0.739-0.203 0.761-0.666 c0.074-1.699 0.065-1.754 1.728-1.817c1.094-0.043 1.665-0.559 1.889-1.562c0.097-0.441 0.206-0.89 0.218-1.336 c0.045-1.741 0.992-2.963 2.313-3.905c2.031-1.447 4.24-2.652 6.661-3.193c1.307-0.291 1.658-1.015 2.002-2.027 C203.796 35.7 203.7 35.4 203.1 35.4"/>
	<path fill="#3C3D3D" d="M256.561 73.513v-0.594c-1.407-0.132-1.584-0.264-1.584-1.716V57.893c-0.813 0.265-2.243 0.639-3.409 0.8 v0.528c1.363 0.1 1.5 0.2 1.5 1.649v10.362c0 1.452-0.176 1.562-1.562 1.716v0.594H256.561z M247.102 71.7 c-0.396 0.374-1.077 0.703-1.605 0.703c-0.66 0-1.519-0.527-1.519-1.672c0-0.813 0.463-1.21 1.276-1.605 c0.484-0.221 1.386-0.639 1.848-0.88V71.688z M250.754 72.633l-0.22-0.594c-0.22 0.11-0.528 0.22-0.792 0.2 c-0.374 0-0.748-0.308-0.748-1.298v-4.004c0-1.188-0.22-2.09-1.034-2.75c-0.484-0.396-1.166-0.594-1.848-0.594 c-1.254 0.242-2.729 1.078-3.366 1.54c-0.44 0.33-0.727 0.571-0.727 0.924c0 0.5 0.6 1 1 1 c0.353 0 0.595-0.154 0.704-0.55c0.176-0.682 0.374-1.166 0.639-1.474c0.22-0.265 0.55-0.418 0.945-0.418 c1.057 0 1.8 0.9 1.8 2.42v0.439c-0.483 0.396-2.111 0.99-3.432 1.452c-1.188 0.396-1.76 1.056-1.76 2.2 c0 1.4 1.1 2.7 2.7 2.706c0.616 0 1.672-0.792 2.552-1.387c0.088 0.4 0.2 0.7 0.5 0.9 c0.241 0.2 0.7 0.4 1.1 0.44L250.754 72.633z M240.59 72.721l-0.198-0.594c-0.308 0.154-0.792 0.33-1.298 0.3 c-0.55 0-1.298-0.308-1.298-2.068v-5.609h2.311c0.285-0.176 0.352-0.683 0.132-0.902h-2.442v-3.036l-0.286-0.065l-1.628 1.5 v1.605h-0.99l-0.594 0.66l0.088 0.242h1.496v6.357c0 1.8 0.8 2.6 2.3 2.641c0.197 0 0.527-0.088 0.901-0.286L240.59 72.7 z M233.616 73.513v-0.594c-1.408-0.132-1.54-0.264-1.54-1.76v-7.568c-1.012 0.374-2.134 0.66-3.278 0.836v0.55 c1.254 0.2 1.3 0.3 1.3 1.673v4.51c0 1.496-0.153 1.628-1.518 1.76v0.594H233.616z M230.976 61.8 c0.66 0 1.188-0.55 1.188-1.188c0-0.703-0.528-1.231-1.166-1.231c-0.66 0-1.21 0.528-1.21 1.2 C229.788 61.2 230.3 61.8 231 61.8 M220.24 65.857c0.55-0.418 1.386-0.858 2.046-0.858c1.496 0 2.9 1.3 2.9 3.7 c0 2.464-1.166 4.026-2.904 4.026c-0.704 0-1.54-0.374-2.002-0.858V65.857z M220.24 65.109v-1.717 c-1.122 0.419-2.376 0.792-3.366 0.969v0.55c1.32 0.2 1.4 0.2 1.4 1.605v9.944c0 1.408-0.176 1.54-1.584 1.672v0.616h5.368 v-0.616c-1.694-0.132-1.848-0.264-1.848-1.848v-2.882c0.286 0.2 0.9 0.4 1.5 0.374c2.86-0.551 5.479-2.685 5.479-5.984 c0-2.156-1.452-4.18-3.916-4.18c-0.286 0-0.704 0.109-1.101 0.352L220.24 65.109z M215.202 66.4 c-0.066-0.506-0.309-1.87-0.484-2.354c-0.462-0.197-1.056-0.396-2.002-0.396c-2.067 0-3.41 1.319-3.41 2.9 c0 1.7 1.5 2.5 2.8 3.059c1.145 0.6 1.7 1.1 1.7 1.979c0 0.88-0.704 1.475-1.496 1.5 c-1.343 0-2.332-1.32-2.729-2.75l-0.616 0.088c0.022 0.8 0.2 2.4 0.4 2.662c0.396 0.3 1.4 0.7 2.6 0.7 c1.782 0 3.674-1.034 3.674-3.08c0-1.562-1.122-2.332-2.815-3.036c-1.013-0.44-1.805-0.946-1.805-1.87 c0-0.836 0.572-1.452 1.364-1.452c1.078 0 1.8 0.9 2.3 2.178L215.202 66.363z M202.024 64.4 c1.825 0 2.8 2 2.8 4.686c0 3.059-1.078 3.982-2.332 3.982c-1.76 0-2.882-2.068-2.882-4.84 C199.626 65.7 200.7 64.4 202 64.4 M202.288 63.613c-2.09 0-4.906 1.672-4.906 5.302c0 2.4 1.8 4.9 4.9 4.9 c2.244 0 4.818-1.694 4.818-5.258C207.084 65.8 205.1 63.6 202.3 63.6 M196.084 59.213h-5.896v0.638 c1.694 0.2 1.9 0.3 1.9 2.112v3.498h-7.216v-3.498c0-1.848 0.176-1.958 1.826-2.112v-0.638h-5.874v0.638 c1.804 0.2 2 0.3 2 2.112v8.8c0 1.849-0.177 1.958-1.914 2.112v0.638h5.918v-0.638c-1.761-0.154-1.937-0.264-1.937-2.112 v-4.334h7.216v4.334c0 1.849-0.176 1.958-2.023 2.112v0.638h6.05v-0.638c-1.782-0.154-1.958-0.264-1.958-2.112v-8.8 c0-1.848 0.176-1.958 1.958-2.112V59.213z M175.008 63.877h-3.981v0.572c1.231 0.2 1.4 0.4 1.1 1.3 c-0.44 1.364-1.343 3.872-1.937 5.346l-1.958-5.412c-0.286-0.792-0.154-1.012 0.858-1.188v-0.572h-4.643v0.572 c1.166 0.2 1.4 0.5 1.8 1.605c0.615 1.5 1.6 4.2 2.6 6.843c0.133 0.4 0.2 0.7 0 1 c-0.109 0.286-0.264 0.704-0.638 1.386c-0.506 0.946-0.946 1.452-1.672 1.893c-0.374 0.264-0.572 0.462-0.572 0.8 c0 0.6 0.7 1.1 1.3 1.122c0.33 0 0.616-0.11 0.727-0.55c0.33-1.188 0.813-2.464 2.266-5.984 c1.496-3.542 2.179-5.368 2.729-6.534c0.594-1.231 0.792-1.407 1.936-1.605V63.877z M159.432 65.945v-2.376 c-1.122 0.439-2.134 0.704-3.256 0.88v0.506c1.21 0.2 1.3 0.3 1.3 1.672v4.598c0 1.431-0.154 1.562-1.496 1.694v0.594h5.236 v-0.594c-1.694-0.132-1.805-0.264-1.805-1.694v-4.048c0.462-1.166 1.122-1.737 1.65-1.737c0.374 0 0.6 0.1 1 0.4 c0.132 0.1 0.3 0.2 0.6 0.066c0.463-0.221 0.771-0.683 0.771-1.188c0-0.55-0.528-1.144-1.32-1.144 c-1.012 0-1.936 1.166-2.618 2.332H159.432z M151.49 71.688c-0.396 0.374-1.078 0.703-1.606 0.703c-0.66 0-1.518-0.527-1.518-1.672 c0-0.813 0.462-1.21 1.275-1.605c0.484-0.221 1.387-0.639 1.849-0.88V71.688z M155.142 72.633l-0.22-0.594 c-0.22 0.11-0.528 0.22-0.792 0.22c-0.374 0-0.748-0.308-0.748-1.298v-4.004c0-1.188-0.22-2.09-1.034-2.75 c-0.483-0.396-1.166-0.594-1.848-0.594c-1.254 0.242-2.728 1.078-3.366 1.54c-0.439 0.33-0.726 0.571-0.726 0.9 c0 0.5 0.6 1 1 0.968c0.352 0 0.594-0.154 0.704-0.55c0.176-0.682 0.373-1.166 0.638-1.474 c0.22-0.265 0.55-0.418 0.946-0.418c1.056 0 1.8 0.9 1.8 2.42v0.439c-0.484 0.396-2.112 0.99-3.433 1.5 c-1.188 0.396-1.76 1.056-1.76 2.156c0 1.4 1.1 2.7 2.7 2.706c0.616 0 1.672-0.792 2.552-1.387 c0.088 0.4 0.2 0.7 0.5 0.946c0.242 0.2 0.7 0.4 1.1 0.44L155.142 72.633z M144.781 73.513v-0.594 c-1.254-0.154-1.387-0.22-1.387-1.694v-4.245c0-2.135-1.077-3.366-2.838-3.366c-0.638 0-1.166 0.242-1.804 0.7 c-0.55 0.352-1.012 0.682-1.452 1.012v-1.738c-1.034 0.418-2.134 0.704-3.233 0.902v0.527c1.166 0.2 1.3 0.3 1.3 1.7 v4.554c0 1.452-0.11 1.562-1.562 1.716v0.594h4.862v-0.594c-1.232-0.132-1.364-0.22-1.364-1.694v-5.191 c0.639-0.55 1.452-1.057 2.267-1.057c1.342 0 1.9 0.9 1.9 2.442v3.674c0 1.54-0.154 1.694-1.387 1.826v0.594H144.781z M132.615 73.513v-0.594c-1.408-0.132-1.54-0.264-1.54-1.76v-7.568c-1.013 0.374-2.134 0.66-3.278 0.836v0.55 c1.254 0.2 1.3 0.3 1.3 1.673v4.51c0 1.496-0.153 1.628-1.518 1.76v0.594H132.615z M129.975 61.8 c0.66 0 1.188-0.55 1.188-1.188c0-0.703-0.528-1.231-1.166-1.231c-0.66 0-1.21 0.528-1.21 1.2 C128.787 61.2 129.3 61.8 130 61.8 M122.451 65.945v-2.376c-1.122 0.439-2.134 0.704-3.256 0.88v0.506 c1.21 0.2 1.3 0.3 1.3 1.672v4.598c0 1.431-0.153 1.562-1.496 1.694v0.594h5.236v-0.594 c-1.694-0.132-1.804-0.264-1.804-1.694v-4.048c0.462-1.166 1.122-1.737 1.649-1.737c0.374 0 0.6 0.1 1 0.4 c0.132 0.1 0.3 0.2 0.6 0.066c0.462-0.221 0.77-0.683 0.77-1.188c0-0.55-0.527-1.144-1.319-1.144 c-1.013 0-1.937 1.166-2.618 2.332H122.451z M113.717 64.427c1.145 0 1.8 1.1 1.8 2.223c0 0.33-0.132 0.439-0.506 0.4 c-1.21 0.044-2.354 0.066-3.521 0.066C111.803 65.4 112.7 64.4 113.7 64.4 M117.127 71.1 c-0.792 0.726-1.628 1.078-2.508 1.078c-1.54 0-3.19-1.232-3.234-4.114c2.552-0.088 5.302-0.308 5.654-0.353 c0.439-0.088 0.528-0.285 0.528-0.726c0.021-1.738-1.475-3.388-3.345-3.388c-1.144 0-2.332 0.594-3.256 1.6 c-0.901 0.969-1.474 2.332-1.474 3.872c0 2.5 1.6 4.7 4.3 4.687c0.726 0 2.266-0.396 3.651-2.179L117.127 71.115z M108.459 72.721l-0.198-0.594c-0.308 0.154-0.792 0.33-1.298 0.33c-0.55 0-1.298-0.308-1.298-2.068v-5.609h2.31 c0.286-0.176 0.353-0.683 0.133-0.902h-2.442v-3.036l-0.286-0.065l-1.628 1.496v1.605h-0.99l-0.594 0.66l0.088 0.242h1.496v6.357 c0 1.8 0.8 2.6 2.3 2.641c0.198 0 0.528-0.088 0.902-0.286L108.459 72.721z M97.196 64.4 c1.144 0 1.8 1.1 1.8 2.223c0 0.33-0.133 0.439-0.507 0.439c-1.21 0.044-2.354 0.066-3.52 0.1 C95.282 65.4 96.2 64.4 97.2 64.4 M100.606 71.115c-0.792 0.726-1.629 1.078-2.509 1.1 c-1.54 0-3.189-1.232-3.233-4.114c2.552-0.088 5.302-0.308 5.653-0.353c0.44-0.088 0.528-0.285 0.528-0.726 c0.022-1.738-1.474-3.388-3.344-3.388c-1.145 0-2.332 0.594-3.256 1.605c-0.902 0.969-1.475 2.332-1.475 3.9 c0 2.5 1.6 4.7 4.3 4.687c0.727 0 2.267-0.396 3.652-2.179L100.606 71.115z M93.763 59.213h-4.994v0.66 c1.782 0.2 1.9 0.4 1.5 1.716c-0.682 2.156-2.199 6.116-3.344 8.954h-0.044c-1.342-3.476-2.97-7.766-3.564-9.372 c-0.329-0.946-0.285-1.122 1.299-1.298v-0.66h-5.61v0.66c1.32 0.1 1.7 0.3 2.3 1.98c1.188 3 3.1 7.9 4.5 11.9 h0.748c1.672-4.532 3.938-10.011 4.554-11.484c0.836-2.002 1.144-2.222 2.64-2.376V59.213z M73.612 63.877H69.63v0.572 c1.232 0.2 1.4 0.4 1.1 1.254c-0.44 1.364-1.342 3.872-1.936 5.346l-1.958-5.412c-0.286-0.792-0.154-1.012 0.858-1.188 v-0.572h-4.642v0.572c1.166 0.2 1.4 0.5 1.8 1.605c0.616 1.5 1.6 4.2 2.6 6.8 c0.132 0.4 0.2 0.7 0 1.012c-0.11 0.286-0.264 0.704-0.638 1.386c-0.506 0.946-0.946 1.452-1.672 1.9 c-0.374 0.264-0.572 0.462-0.572 0.813c0 0.6 0.7 1.1 1.3 1.122c0.33 0 0.616-0.11 0.726-0.55 c0.33-1.188 0.814-2.464 2.266-5.984c1.496-3.542 2.178-5.368 2.728-6.534c0.594-1.231 0.792-1.407 1.937-1.605V63.877z M58.036 65.945v-2.376c-1.122 0.439-2.134 0.704-3.256 0.88v0.506c1.21 0.2 1.3 0.3 1.3 1.672v4.598 c0 1.431-0.154 1.562-1.496 1.694v0.594h5.236v-0.594c-1.694-0.132-1.804-0.264-1.804-1.694v-4.048 c0.462-1.166 1.122-1.737 1.65-1.737c0.374 0 0.6 0.1 1 0.439c0.132 0.1 0.3 0.2 0.6 0.1 c0.462-0.221 0.77-0.683 0.77-1.188c0-0.55-0.528-1.144-1.32-1.144c-1.012 0-1.936 1.166-2.618 2.332H58.036z M48.07 64.4 c1.826 0 2.8 2 2.8 4.686c0 3.059-1.078 3.982-2.332 3.982c-1.76 0-2.882-2.068-2.882-4.84 C45.672 65.7 46.8 64.4 48.1 64.4 M48.334 63.613c-2.09 0-4.906 1.672-4.906 5.302c0 2.4 1.8 4.9 4.9 4.9 c2.244 0 4.818-1.694 4.818-5.258C53.13 65.8 51.1 63.6 48.3 63.6 M42.988 73.513v-0.594 c-0.814-0.065-1.364-0.374-2.134-1.188c-0.726-0.792-2.904-3.389-3.366-4.093c0.88-1.056 1.254-1.496 1.826-2.046 c0.814-0.792 1.342-1.034 2.816-1.275v-0.572l-4.532 0.198v0.594c1.012 0.1 1.1 0.3 0.7 0.9 c-0.374 0.571-1.012 1.43-1.496 1.936c-0.352 0.353-0.726 0.638-1.364 0.771V57.893c-0.968 0.309-2.288 0.639-3.344 0.771v0.528 c1.32 0.1 1.4 0.2 1.4 1.649v10.362c0 1.43-0.132 1.584-1.584 1.716v0.594h5.06v-0.594c-1.386-0.132-1.562-0.264-1.562-1.716 v-2.42c0.132-0.044 0.22-0.066 0.308-0.066c0.198 0 0.4 0.1 0.6 0.484c1.166 1.5 2.5 3.3 3.5 4.355L42.988 73.513z M30.822 71.027c-0.968 0.901-1.672 1.166-2.596 1.166c-1.188 0-3.278-1.013-3.278-4.048c0-2.311 1.21-3.454 2.552-3.454 c0.748 0 1.5 0.3 2.2 0.945c0.176 0.2 0.3 0.2 0.4 0.242c0.264 0 0.77-0.506 0.77-1.012 c0-0.242-0.066-0.44-0.374-0.683c-0.33-0.285-1.056-0.571-1.936-0.571c-0.858 0-2.2 0.352-3.388 1.3 c-1.452 1.101-2.222 2.597-2.222 4.269c0 2.4 1.6 4.6 4.5 4.62c1.298 0 2.75-0.969 3.74-2.267L30.822 71.027z M21.648 73.5 v-0.594c-1.408-0.132-1.54-0.264-1.54-1.76v-7.568c-1.012 0.374-2.134 0.66-3.278 0.836v0.55c1.254 0.2 1.3 0.3 1.3 1.7 v4.51c0 1.496-0.154 1.628-1.518 1.76v0.594H21.648z M19.008 61.787c0.66 0 1.188-0.55 1.188-1.188 c0-0.703-0.528-1.231-1.166-1.231c-0.66 0-1.21 0.528-1.21 1.231C17.82 61.2 18.4 61.8 19 61.8 M15.29 59.213H9.394 v0.638c1.694 0.2 1.9 0.3 1.9 2.112v3.498H4.048v-3.498c0-1.848 0.176-1.958 1.826-2.112v-0.638H0v0.638 c1.804 0.2 2 0.3 2 2.112v8.8c0 1.849-0.176 1.958-1.914 2.112v0.638h5.918v-0.638c-1.76-0.154-1.936-0.264-1.936-2.112 v-4.334h7.216v4.334c0 1.849-0.176 1.958-2.024 2.112v0.638h6.05v-0.638c-1.782-0.154-1.958-0.264-1.958-2.112v-8.8 c0-1.848 0.176-1.958 1.958-2.112V59.213z"/>
</g>
</svg>
